<svg width="220" height="220" viewBox="0 0 220 220" fill="none" xmlns="http://www.w3.org/2000/svg">
  <defs>
    <linearGradient id="bg" x1="32" y1="24" x2="172" y2="188" gradientUnits="userSpaceOnUse">
      <stop stop-color="#FDE68A"/>
      <stop offset="1" stop-color="#FDBA74"/>
    </linearGradient>
    <linearGradient id="coat" x1="86" y1="92" x2="127" y2="172" gradientUnits="userSpaceOnUse">
      <stop stop-color="#1E3A8A"/>
      <stop offset="1" stop-color="#334155"/>
    </linearGradient>
  </defs>
  <circle cx="110" cy="110" r="94" fill="url(#bg)" opacity="0.28"/>
  <path d="M86 58C86 44.7 96.7 34 110 34C123.3 34 134 44.7 134 58C134 71.3 123.3 82 110 82C96.7 82 86 71.3 86 58Z" fill="#F8C9A0"/>
  <path d="M84 56C84 38 98 28 111 28C124 28 137 38 137 55C137 60 134 65 131 69C126 59 114 53 103 53C97 53 90 55 84 56Z" fill="#A16207"/>
  <path d="M73 160C73 128 88 96 110 96C132 96 147 128 147 160V181H73V160Z" fill="url(#coat)"/>
  <path d="M97 95L110 113L123 95" stroke="#E2E8F0" stroke-width="6" stroke-linecap="round" stroke-linejoin="round"/>
  <path d="M38 126L72 136L62 179L28 170L38 126Z" fill="#F9A8D4" stroke="#E11D48" stroke-width="3"/>
  <path d="M38 126C42 116 52 112 60 116L72 136" stroke="#94A3B8" stroke-width="4" stroke-linecap="round"/>
  <path d="M149 126L182 117L194 162L161 171L149 126Z" fill="#BBF7D0" stroke="#16A34A" stroke-width="3"/>
  <path d="M149 126C153 117 163 113 171 117L182 117" stroke="#94A3B8" stroke-width="4" stroke-linecap="round"/>
  <path d="M70 110L46 132" stroke="#F8C9A0" stroke-width="9" stroke-linecap="round"/>
  <path d="M150 110L172 124" stroke="#F8C9A0" stroke-width="9" stroke-linecap="round"/>
  <path d="M96 181L90 212" stroke="#64748B" stroke-width="8" stroke-linecap="round"/>
  <path d="M124 181L130 212" stroke="#64748B" stroke-width="8" stroke-linecap="round"/>
  <path d="M84 212H96" stroke="#B91C1C" stroke-width="6" stroke-linecap="round"/>
  <path d="M124 212H136" stroke="#B91C1C" stroke-width="6" stroke-linecap="round"/>
</svg>
